<?xml version="1.0" encoding="UTF-8"?>
<svg width="72px" height="54px" viewBox="0 0 72 54" version="1.1" xmlns="http://www.w3.org/2000/svg">
   <g id="Page-1" stroke="none" stroke-width="1" fill="none" fill-rule="evenodd">
   <g id="network-icon" transform="translate(0.000000, -6.000000)" fill="context-fill" fill-rule="nonzero">
        <path d="M14.0487805,60 C6.28990244,60 0,53.3306322 0,45.1034585 C0,38.0105634 4.68716488,32.0867675 10.9481707,30.585103 C10.6902,29.574652 10.5365854,28.5107596 10.5365854,27.4138156 C10.5365854,20.7292347 15.6471278,15.3103384 21.9512195,15.3103384 C24.8076351,15.3103384 27.4126741,16.4393194 29.4146341,18.2780088 C32.1344254,11.0777841 38.77452,6 46.5365854,6 C56.7201249,6 64.9756098,14.7536733 64.9756098,25.5517479 C64.9756098,26.7691677 64.8471688,27.9453428 64.6463415,29.1013144 C69.0576849,32.0679606 72,37.2693674 72,43.2413909 C72,52.5256603 64.9510244,60 56.195122,60 L14.0487805,60 Z" id="network-icon"></path>
    </g>
    </g>
</svg>
