<?xml version="1.0" encoding="UTF-8"?>
<svg width="70px" height="63px" viewBox="0 0 70 63" version="1.1" xmlns="http://www.w3.org/2000/svg">
    <g id="Page-1" stroke="none" stroke-width="1" fill="none" fill-rule="evenodd">
        <g id="Artboard" transform="translate(-1.000000, -1.000000)" fill="context-fill" fill-rule="nonzero">
            <g id="server-icon" transform="translate(1.000000, 1.000000)">
                <path d="M64,2 L4,2 C2.8954305,2 2,2.81148389 2,3.8125 L2,58.1875 C2,59.1885161 2.8954305,60 4,60 L36,60 L36,56.375 L6,56.375 L6,41.875 L38,41.875 L38,38.25 L6,38.25 L6,23.75 L62,23.75 L62,36.4375 L66,36.4375 L66,3.8125 C66,2.81148389 65.1045695,2 64,2 Z M62,20.125 L6,20.125 L6,5.625 L62,5.625 L62,20.125 Z" id="Shape"></path>
                <path d="M24,47 L24,51 L20,51 L20,47 L24,47 Z M16,47 L16,51 L12,51 L12,47 L16,47 Z M56,29 L56,33 L52,33 L52,29 L56,29 Z M48,29 L48,33 L12,33 L12,29 L48,29 Z M22,11 L22,15 L10,15 L10,11 L22,11 Z M70,0 L70,36.5 L65,36.5 L65,4.5 L5,4.5 L5,58.5 L36,58.5 L36,63 L0,63 L0,0 L70,0 Z M32,47 L32,51 L28,51 L28,47 L32,47 Z M54,11 L54,15 L50,15 L50,11 L54,11 Z M46,11 L46,15 L42,15 L42,11 L46,11 Z M38,11 L38,15 L34,15 L34,11 L38,11 Z M30,11 L30,15 L26,15 L26,11 L30,11 Z" id="Rectangle-2"></path>
                <path d="M61,46 L59,46 L59,40 C59,38.8954305 58.1045695,38 57,38 L49,38 C47.8954305,38 47,38.8954305 47,40 L47,46 L45,46 C43.8954305,46 43,46.8954305 43,48 L43,60 C43,61.1045695 43.8954305,62 45,62 L61,62 C62.1045695,62 63,61.1045695 63,60 L63,48 C63,46.8954305 62.1045695,46 61,46 Z M51,42 L55,42 L55,46 L51,46 L51,42 Z M59,58 L47,58 L47,50 L59,50 L59,58 Z" id="Shape"></path>
            </g>
        </g>
    </g>
</svg>
